<svg version="1.0" xmlns="http://www.w3.org/2000/svg" width="933.333" height="933.333" viewBox="0 0 700 700"><path d="M592.6 89.2c-2.4 1.2-4.3 3.2-5.2 5.4l-1.5 3.5-2.8-2c-4.7-3.3-11.9-4.4-18.8-2.7-5.7 1.3-7.6 9.3-3.7 15 1.2 1.7 1 2.1-1.9 3.5-8.7 4.4-10.7 24.8-2.8 29.1 3.5 1.8 7.1 1.1 10.1-1.9 2.1-2.1 3-2.5 3.4-1.5 1.8 4.8 16.6-3.1 22.2-11.9 1.4-2.1 3.6-4.2 5-4.7 4.6-1.8 12-10.4 13.3-15.4 3.1-12.3-6.9-21.7-17.3-16.4zM347.6 106.2c-2.3.6-5.8 3-8.7 5.8-4.8 4.6-4.9 4.6-6.7 2.7-2.6-3-9-5.5-13.1-5.2-5.4.4-9.2 1.6-8.4 2.8.3.6.1.7-.5.3-1.5-.9-7.2 3.3-7.2 5.3 0 .8-.3 1.1-.7.8-1.2-1.3-7.6 10.4-8.8 16.3-.2.8-.8 3.4-1.3 5.7-.5 2.3-.8 4.4-.5 4.7.3.2-2.2.2-5.5-.1-5.8-.5-6-.5-8.2 2.5l-2.3 3.1-2.4-1.9c-5.5-4.3-16.8-3.2-22.7 2.4-5.2 4.8-5.4 12.7-.5 19.6l1.7 2.6-3.3-.4c-5-.6-10.1 1.5-13.5 5.6-3.8 4.6-5.3 9.9-5.2 17.8.2 5.6 0 6.2-2.4 7.2-1.5.7-2.2 1.7-1.8 2.4.4.7.3.8-.4.4s-1.8-.4-2.4.1c-.7.4-2.9.8-4.9.8-6.4.2-10.4 4.2-11.6 11.5-.2 1.4-1.1 3.2-1.9 4.1-.8.8-1.1 1.9-.7 2.3.5.4.1.6-.7.4-.9-.2-1.4.4-1.4 1.4.1 1-.2 1.6-.6 1.3-.8-.5-3.5 5.3-4.8 10.5-2.2 8.8 1.7 21.1 9.6 30.1 3.7 4.2 4.8 6.2 5.7 10.7.2 1.1 1.6 6.9 3 12.7 1.5 5.9 2.8 11.2 2.9 11.9.1.6.5 2 .9 3.1.3 1.1.8 3.1 1.1 4.5.3 1.4.9 4.2 1.5 6.2l.9 3.7-14.4 10.8c-8 5.9-15.5 11.6-16.7 12.5-1.2.9-14.9 11.2-30.4 22.8l-28.1 21.1-3.9-1c-2.1-.5-6.5-1.2-9.8-1.6-3.3-.4-6-.7-6.1-.8-.1-.1 4.6-9.9 10.4-21.7 5.8-11.8 14.4-29.6 19.2-39.5 4.8-9.9 13.4-27.5 19-39 5.6-11.6 13.8-28.4 18.2-37.5 4.4-9.1 10-20.4 12.4-25.2l4.3-8.7-7.5-4.1c-4.1-2.2-10.7-5.7-14.6-7.9-4-2.1-10.7-5.7-14.8-7.9l-7.5-4-14.7-.5-14.6-.5-2.8 6.2c-1.5 3.3-3.7 8.3-5 11.1-1.2 2.7-5.3 11.7-8.9 20-3.7 8.2-7.6 16.9-8.6 19.3-1.1 2.4-4.6 10.2-7.8 17.5-3.2 7.3-9.8 22-14.6 32.7-4.8 10.7-14.3 32.1-21.2 47.5-13 29.2-13.7 30.7-19.8 44.5-2.1 4.7-5.5 12.3-7.7 16.9-4.4 9.6-4.7 9 5.2 12.2 3.6 1.2 6.9 2.5 7.4 3 .6.5 1.7.9 2.6.9.9 0 6.4 3.1 12.1 6.9 9.5 6.3 23.3 13.7 31.5 17 1.8.7 4.7 3.4 6.5 5.9 1.8 2.6 24.2 33.5 49.8 68.7 25.5 35.2 46.5 64.1 46.6 64.2.1.3 15.4 4.7 19 5.5 1.4.3 4.9-1.5 10.7-5.6 4.8-3.4 16.8-11.7 26.8-18.6 9.9-6.9 23.3-16.2 29.8-20.8 6.4-4.5 12.1-8.2 12.5-8.2.5 0 3.6 1.6 6.8 3.5 3.3 1.9 6.2 3.5 6.4 3.5.3 0 2.8 1.1 5.7 2.4 19.2 8.7 48.8 13.9 78.8 13.9 10.4.1 34-1.2 35-1.8.3-.1 3.2-.6 6.5-.9 3.3-.4 6.7-.9 7.6-1.2 1-.2 3-.6 4.5-.8 2.8-.4 7.1-1.3 10.7-2.3 1.6-.4 1.7.2 1.5 6-.2 5.6.2 7.1 2.6 10.8 3.7 5.8 14.8 16.5 21.9 21.2 11.5 7.7 28.4 13.8 49.7 18 25.7 5.1 46.4 5.4 59.6.8 11.9-4.2 19.3-10.3 21.7-17.8.9-2.6 3.4-10.9 5.7-18.3 2.3-7.4 6.1-19.8 8.5-27.5 8.6-27.2 22.8-73.1 24.1-77.5.7-2.5 2.6-8.8 4.3-14 1.6-5.2 4.9-15.9 7.4-23.8l4.4-14.3 4.1-2.2 4.2-2.1 5-15.3c2.8-8.5 5-16.6 5-18.1-.1-15.8-32.7-37.7-75.5-50.7-7.7-2.4-8.5-2.8-8-4.8.3-1.2 3-13.9 6.1-28.2 3.1-14.3 6.3-27.1 7.1-28.3.8-1.3 3.3-3.2 5.6-4.2 3.9-1.6 5.1-1.7 16.2-.4 14.8 1.6 20.8 2.3 26.3 3 3.9.5 4.5.3 7.8-3 3.4-3.4 3.6-4 3.2-8.7-.6-6.4-2.8-8.5-9.3-9.4-2.7-.3-6.1-.8-7.5-1-1.4-.2-6.3-.9-11-1.5-13.3-1.8-15.3-2-18-2.5-1.5-.3-3.7.3-5.5 1.5-3.3 2.2-7.6 2.6-10.5 1-1.5-.8-2-.6-2.5 1-.8 2.4-5 5.5-8.8 6.4-1.5.4-2.5 1.1-2.2 1.7 1.2 1.8-.7 7-3.7 10.4-2.9 3.4-4.8 10.6-13.5 50.5-.9 4.1-1.8 7.7-1.9 7.9-.2.2-4-.2-8.5-1l-8.1-1.3.7-8c.3-4.5.8-9 1-10.1.2-1.1.7-4.7 1-8 .3-3.3 1-9.6 1.5-14s1.2-10.5 1.5-13.5c.3-3 .7-6.2.8-7.2.2-.9 1.9-3.4 4-5.7 13.7-15.2 14.7-31.3 2.8-43.9-5-5.2-11.7-9.6-13.2-8.6-.7.4-1 .3-.6-.3s-.6-1.6-2.4-2.2c-1.6-.6-2.9-1.6-2.7-2.3.5-2.8-1.3-6.5-3.7-7.6-1.9-.9-2.5-.9-2.5.1 0 .9-.2.9-.8-.1-.9-1.3-4.2-.6-5.3 1.1-.4.5-1.2-.6-1.8-2.6-1.6-4.6-4.1-6.8-8.9-7.4-3.3-.4-4.4-.1-7.4 2.6l-3.5 3.1-.6-4c-.6-5-2.8-8.5-7-11.1-2.6-1.6-4.4-1.9-8.9-1.6l-5.8.5V163c0-3.8-1.7-8-4.3-10.8-5.7-6.1-17.6-8.8-26.1-5.9-2.5.9-4.6 1.2-4.6.8 0-2.3-8.5-10.1-13.1-12.1-5.3-2.2-14.4-3.2-18.9-2-1.7.4-3.5 0-5.5-1.2-1.6-1-4.4-1.8-6.2-1.8-2.7 0-3.5-.6-4.9-3.5-3.3-7-12.8-12.6-21.4-12.7-3.2 0-6.8.9-10.5 2.5-3 1.4-5.5 2.2-5.5 1.6 0-1.5-7.1-8.9-10-10.4-3.8-2-10.8-2.5-15.4-1.3z"/></svg>