<?xml version="1.0" standalone="no"?>
<!DOCTYPE svg PUBLIC "-//W3C//DTD SVG 20010904//EN"
 "http://www.w3.org/TR/2001/REC-SVG-20010904/DTD/svg10.dtd">
<svg version="1.0" xmlns="http://www.w3.org/2000/svg"
 width="700.000000pt" height="700.000000pt" viewBox="0 0 700.000000 700.000000"
 preserveAspectRatio="xMidYMid meet">
<metadata>
Created by potrace 1.14, written by Peter Selinger 2001-2017
</metadata>
<g transform="translate(0.000000,700.000000) scale(0.100000,-0.100000)"
fill="#000000" stroke="none">
<path d="M5926 6108 c-24 -12 -43 -32 -52 -54 l-15 -35 -28 20 c-47 33 -119
44 -188 27 -57 -13 -76 -93 -37 -150 12 -17 10 -21 -19 -35 -87 -44 -107 -248
-28 -291 35 -18 71 -11 101 19 21 21 30 25 34 15 18 -48 166 31 222 119 14 21
36 42 50 47 46 18 120 104 133 154 31 123 -69 217 -173 164z"/>
<path d="M3476 5938 c-23 -6 -58 -30 -87 -58 -48 -46 -49 -46 -67 -27 -26 30
-90 55 -131 52 -54 -4 -92 -16 -84 -28 3 -6 1 -7 -5 -3 -15 9 -72 -33 -72 -53
0 -8 -3 -11 -7 -8 -12 13 -76 -104 -88 -163 -2 -8 -8 -34 -13 -57 -5 -23 -8
-44 -5 -47 3 -2 -22 -2 -55 1 -58 5 -60 5 -82 -25 l-23 -31 -24 19 c-55 43
-168 32 -227 -24 -52 -48 -54 -127 -5 -196 l17 -26 -33 4 c-50 6 -101 -15
-135 -56 -38 -46 -53 -99 -52 -178 2 -56 0 -62 -24 -72 -15 -7 -22 -17 -18
-24 4 -7 3 -8 -4 -4 -7 4 -18 4 -24 -1 -7 -4 -29 -8 -49 -8 -64 -2 -104 -42
-116 -115 -2 -14 -11 -32 -19 -41 -8 -8 -11 -19 -7 -23 5 -4 1 -6 -7 -4 -9 2
-14 -4 -14 -14 1 -10 -2 -16 -6 -13 -8 5 -35 -53 -48 -105 -22 -88 17 -211 96
-301 37 -42 48 -62 57 -107 2 -11 16 -69 30 -127 15 -59 28 -112 29 -119 1 -6
5 -20 9 -31 3 -11 8 -31 11 -45 3 -14 9 -42 15 -62 l9 -37 -144 -108 c-80 -59
-155 -116 -167 -125 -12 -9 -149 -112 -304 -228 l-281 -211 -39 10 c-21 5 -65
12 -98 16 -33 4 -60 7 -61 8 -1 1 46 99 104 217 58 118 144 296 192 395 48 99
134 275 190 390 56 116 138 284 182 375 44 91 100 204 124 252 l43 87 -75 41
c-41 22 -107 57 -146 79 -40 21 -107 57 -148 79 l-75 40 -147 5 -146 5 -28
-62 c-15 -33 -37 -83 -50 -111 -12 -27 -53 -117 -89 -200 -37 -82 -76 -169
-86 -193 -11 -24 -46 -102 -78 -175 -32 -73 -98 -220 -146 -327 -48 -107 -143
-321 -212 -475 -130 -292 -137 -307 -198 -445 -21 -47 -55 -123 -77 -169 -44
-96 -47 -90 52 -122 36 -12 69 -25 74 -30 6 -5 17 -9 26 -9 9 0 64 -31 121
-69 95 -63 233 -137 315 -170 18 -7 47 -34 65 -59 18 -26 242 -335 498 -687
255 -352 465 -641 466 -642 1 -3 154 -47 190 -55 14 -3 49 15 107 56 48 34
168 117 268 186 99 69 233 162 298 208 64 45 121 82 125 82 5 0 36 -16 68 -35
33 -19 62 -35 64 -35 3 0 28 -11 57 -24 192 -87 488 -139 788 -139 104 -1 340
12 350 18 3 1 32 6 65 9 33 4 67 9 76 12 10 2 30 6 45 8 28 4 71 13 107 23 16
4 17 -2 15 -60 -2 -56 2 -71 26 -108 37 -58 148 -165 219 -212 115 -77 284
-138 497 -180 257 -51 464 -54 596 -8 119 42 193 103 217 178 9 26 34 109 57
183 23 74 61 198 85 275 86 272 228 731 241 775 7 25 26 88 43 140 16 52 49
159 74 238 l44 143 41 22 42 21 50 153 c28 85 50 166 50 181 -1 158 -327 377
-755 507 -77 24 -85 28 -80 48 3 12 30 139 61 282 31 143 63 271 71 283 8 13
33 32 56 42 39 16 51 17 162 4 148 -16 208 -23 263 -30 39 -5 45 -3 78 30 34
34 36 40 32 87 -6 64 -28 85 -93 94 -27 3 -61 8 -75 10 -14 2 -63 9 -110 15
-133 18 -153 20 -180 25 -15 3 -37 -3 -55 -15 -33 -22 -76 -26 -105 -10 -15 8
-20 6 -25 -10 -8 -24 -50 -55 -88 -64 -15 -4 -25 -11 -22 -17 12 -18 -7 -70
-37 -104 -29 -34 -48 -106 -135 -505 -9 -41 -18 -77 -19 -79 -2 -2 -40 2 -85
10 l-81 13 7 80 c3 45 8 90 10 101 2 11 7 47 10 80 3 33 10 96 15 140 5 44 12
105 15 135 3 30 7 62 8 72 2 9 19 34 40 57 137 152 147 313 28 439 -50 52
-117 96 -132 86 -7 -4 -10 -3 -6 3 4 6 -6 16 -24 22 -16 6 -29 16 -27 23 5 28
-13 65 -37 76 -19 9 -25 9 -25 -1 0 -9 -2 -9 -8 1 -9 13 -42 6 -53 -11 -4 -5
-12 6 -18 26 -16 46 -41 68 -89 74 -33 4 -44 1 -74 -26 l-35 -31 -6 40 c-6 50
-28 85 -70 111 -26 16 -44 19 -89 16 l-58 -5 0 28 c0 38 -17 80 -43 108 -57
61 -176 88 -261 59 -25 -9 -46 -12 -46 -8 0 23 -85 101 -131 121 -53 22 -144
32 -189 20 -17 -4 -35 0 -55 12 -16 10 -44 18 -62 18 -27 0 -35 6 -49 35 -33
70 -128 126 -214 127 -32 0 -68 -9 -105 -25 -30 -14 -55 -22 -55 -16 0 15 -71
89 -100 104 -38 20 -108 25 -154 13z"/>
</g>
</svg>
